<svg role="img" viewBox="0 0 30 30" xmlns="http://www.w3.org/2000/svg" id="Langchain--Streamline-Simple-Icons" height="30" width="30">
  <desc>
    Langchain Streamline Icon: https://streamlinehq.com
  </desc>
  <title>LangChain</title>
  <path d="M7.6235 7.3968750000000005C3.419875 7.3968750000000005 0 10.80775 0 15s3.4200000000000004 7.6031249999999995 7.6235 7.6031249999999995h14.753C26.580125 22.603125 30 19.19225 30 15s-3.4200000000000004 -7.6031249999999995 -7.6235 -7.6031249999999995ZM7.47175 9.81375c0.61625 0.0155 1.275 0.312 1.5912499999999998 0.7785 0.459125 0.574 0.5972500000000001 1.3335 1.1179999999999999 1.8665 0.7005 0.76475 1.49875 1.438125 2.145125 2.2525 0.6115 0.7442500000000001 1.04825 1.6171250000000001 1.4295 2.496875 0.1555 0.291875 0.15712500000000001 0.65025 0.3875 0.899625 0.1135 0.1505 0.66825 0.560375 0.547875 0.705625 0.069375 0.1505 0.58775 0.3575 0.407875 0.503375 -0.243 0.05 -0.516125 0.059500000000000004 -0.702 -0.13424999999999998 -0.06862499999999999 0.1575 -0.22875 0.0745 -0.352375 0.054000000000000006a5 5 0 0 0 -0.03125 0.092c-0.411 0.027375 -0.7192500000000001 -0.39075 -0.915 -0.7062499999999999 -0.38887499999999997 -0.21000000000000002 -0.83025 -0.33775 -1.2275 -0.5575 -0.02275 0.36187499999999995 0.056499999999999995 0.8106249999999999 -0.28875 1.044125 -0.0175 0.6956249999999999 1.0545 0.082 1.15275 0.6005 -0.07625 0.008375 -0.16075 -0.011875 -0.22175 0.046625 -0.279875 0.2715 -0.600625 -0.205625 -0.9231250000000001 -0.00875 -0.433 0.21749999999999997 -0.47600000000000003 0.395125 -1.012 0.43999999999999995 -0.029625 -0.044875 -0.017875000000000002 -0.07400000000000001 0.007375 -0.101375 0.150875 -0.174875 0.161875 -0.38075 0.4195 -0.45537500000000003 -0.26525 -0.041749999999999995 -0.487375 0.104125 -0.71075 0.219625 -0.290375 0.11875 -0.288 -0.267625 -0.73475 0.0205 -0.0495 -0.04025 -0.026 -0.076875 0.00225 -0.10800000000000001 0.1135 -0.138375 0.26275 -0.15875 0.43124999999999997 -0.151 -0.8287500000000001 -0.46075 -1.218875 0.563375 -1.601625 0.054000000000000006 -0.11499999999999999 0.030375 -0.15812500000000002 0.1335 -0.230625 0.20650000000000002 -0.0625 -0.0685 -0.015375 -0.1515 -0.012375 -0.232125 -0.07475 -0.035 -0.16949999999999998 -0.051250000000000004 -0.147375 -0.17075 -0.146375 -0.049375 -0.2485 0.036875 -0.3575 0.11900000000000001 -0.098375 -0.076 0.0665 -0.1865 0.097 -0.265625 0.08775 -0.152 0.28750000000000003 -0.03125 0.38887499999999997 -0.14075000000000001 0.28825 -0.1635 0.6900000000000001 0.10175000000000001 1.019375 0.056874999999999995 0.25375000000000003 0.031875 0.5680000000000001 -0.228125 0.44075000000000003 -0.48750000000000004 -0.271375 -0.345875 -0.22375 -0.7982499999999999 -0.229875 -1.211875 -0.0335 -0.24112499999999998 -0.61375 -0.54775 -0.7815 -0.80775 -0.20737499999999998 -0.234125 -0.36874999999999997 -0.505875 -0.530375 -0.7727499999999999 -0.58325 -1.1260000000000001 -0.39974999999999994 -2.5729999999999995 -1.134625 -3.618375 -0.3325 0.18325000000000002 -0.765625 0.09675 -1.05225 -0.14875 -0.15475 0.140625 -0.1615 0.32475 -0.17375000000000002 0.5201250000000001 -0.37124999999999997 -0.37025 -0.324125 -1.069875 -0.027499999999999997 -1.481875 0.121125 -0.16275 0.265875 -0.296625 0.42750000000000005 -0.4145 0.0365 -0.026625 0.048875 -0.052375 0.048125 -0.093375 0.14675 -0.6583749999999999 0.7205 -0.923875 1.3367499999999999 -0.908375m15.508875 0.5750000000000001c0.696875 0 1.3507500000000001 0.26987500000000003 1.8425 0.76025s0.7625 1.143125 0.7625 1.8379999999999999c0 0.6950000000000001 -0.270875 1.3475000000000001 -0.7625 1.83725v0.0007499999999999999l-1.1275 1.124375a2.6 2.6 0 0 1 -1.074625 0.6457499999999999l-0.0205 0.005875 -0.0072499999999999995 0.0205a2.5625 2.5625 0 0 1 -0.5925 0.9135l-1.12725 1.124375c-0.49175 0.49050000000000005 -1.14625 0.7603749999999999 -1.843125 0.7603749999999999s-1.3507500000000001 -0.27 -1.8425 -0.7603749999999999c-1.0162499999999999 -1.013375 -1.0162499999999999 -2.66175 0 -3.67525l1.127375 -1.124375a2.5700000000000003 2.5700000000000003 0 0 1 1.0725 -0.642875l0.02125 -0.006625 0.0072499999999999995 -0.019750000000000004a2.5875 2.5875 0 0 1 0.594 -0.917125l1.12725 -1.124375c0.49175 -0.49050000000000005 1.146375 -0.7603749999999999 1.843125 -0.7603749999999999zm0 1.120625a1.4749999999999999 1.4749999999999999 0 0 0 -1.0485 0.43275l-1.12725 1.124375a1.47625 1.47625 0 0 0 -0.428375 1.1565l0.006625 0.07150000000000001c0.040375 0.3315 0.18625 0.6305 0.42174999999999996 0.864625 0.1625 0.16199999999999998 0.34162499999999996 0.26425 0.558875 0.33575a1.125 1.125 0 0 1 0.0175 0.19775 1.105 1.105 0 0 1 -0.326125 0.7879999999999999l-0.06924999999999999 0.06924999999999999c-0.376625 -0.1285 -0.690625 -0.31625000000000003 -0.97425 -0.599a2.575 2.575 0 0 1 -0.7201249999999999 -1.371l-0.012375 -0.07225 -0.057625 0.046a1.375 1.375 0 0 0 -0.1095 0.09925l-1.128 1.124375c-0.577875 0.57625 -0.577875 1.515 0 2.09125 0.288875 0.288125 0.6687500000000001 0.4325 1.04925 0.43262500000000004 0.380375 0 0.759625 -0.1445 1.0485 -0.43275l1.127375 -1.124375c0.577875 -0.57625 0.577875 -1.514125 0 -2.09125a1.4625 1.4625 0 0 0 -0.545875 -0.34362499999999996 1.25 1.25 0 0 1 -0.0175 -0.201375c0 -0.323875 0.12787500000000002 -0.63125 0.36262500000000003 -0.865375 0.377375 0.1285 0.7124999999999999 0.33675 0.99525 0.61875 0.375875 0.374875 0.62425 0.8487500000000001 0.7195 1.371l0.013125000000000001 0.07225 0.056874999999999995 -0.046625a1.375 1.375 0 0 0 0.110875 -0.09925l1.1275 -1.1244999999999998c0.57775 -0.57625 0.5785 -1.5154999999999998 0 -2.091875a1.4749999999999999 1.4749999999999999 0 0 0 -1.049375 -0.43275Zm-12.46625 6.445875 -0.0007499999999999999 0.0007499999999999999c-0.09912499999999999 0.38475000000000004 -0.131 1.03975 -0.6325000000000001 1.0587499999999999 -0.04125 0.222 0.1535 0.305625 0.33187500000000003 0.23425 0.17625 -0.080625 0.260125 0.0635 0.319625 0.20712499999999998 0.272125 0.039625 0.67425 -0.090625 0.6895 -0.41225 -0.40625 -0.233375 -0.531625 -0.6772499999999999 -0.7077500000000001 -1.088625" fill="#000000" stroke-width="1.25"></path>
</svg>