<svg xmlns="http://www.w3.org/2000/svg" fill="none" viewBox="0 0 30 30" id="Pinecone-Icon--Streamline-Svg-Logos" height="30" width="30">
  <desc>
    Pinecone Icon Streamline Icon: https://streamlinehq.com
  </desc>
  <path fill="#201d1e" d="M13.01996875 26.325656249999998c0.92834375 0 1.6809374999999998 0.7525625 1.6809374999999998 1.68090625 0 0.9283750000000001 -0.7525937500000001 1.6809374999999998 -1.6809374999999998 1.6809374999999998 -0.92834375 0 -1.68090625 -0.7525625 -1.68090625 -1.6809374999999998 0 -0.92834375 0.7525625 -1.68090625 1.68090625 -1.68090625Zm9.32578125 -3.0669375 1.66109375 0.49215624999999996 -1.3185625 4.45021875c-0.11521875000000001 0.38887499999999997 -0.4848125 0.64571875 -0.8894375 0.61815625l-0.40728125 -0.027937499999999997 -0.009968749999999998 0.00821875 -4.23165625 -0.29696875 0.11775000000000001 -1.7284687500000002 2.8430625 0.19293749999999998 -1.86128125 -2.685 1.42378125 -0.9871249999999999 1.8637187499999999 2.6883125000000003 0.80878125 -2.7245000000000004Zm-18.079531250000002 -3.0764375 1.72815625 0.12240625 -0.20240625 2.842625 2.68009375 -1.86365625 0.9893437500000001 1.4221875000000002 -2.68359375 1.8656249999999999 2.7391875 0.8071250000000001 -0.489625 1.66184375 -4.47121875 -1.31728125c-0.39034375000000004 -0.11499999999999999 -0.6480312500000001 -0.48621875000000003 -0.61925 -0.8921562500000001l0.3293125 -4.64871875Zm11.15815625 -2.4206250000000002 3.11903125 3.76565625 -1.4057187500000001 1.16434375 -1.8562500000000002 -2.2410625 -0.6017812499999999 3.4456249999999997 -1.7980625 -0.3143125 0.60240625 -3.4509687500000004 -2.49896875 1.47340625 -0.9265 -1.5726875000000002 4.19975 -2.47415625c0.38609375 -0.22746875 0.8802500000000001 -0.14096875 1.16609375 0.20415624999999998Zm8.726374999999999 -2.5264375 1.5580625000000001 -0.8476875 2.26978125 4.1718125c0.19884374999999999 0.36546875 0.11690624999999999 0.8200000000000001 -0.19703125 1.0930312500000001l-0.321125 0.27746875 -3.27678125 2.8517187500000003 -1.1640000000000001 -1.338375 2.20296875 -1.9165625 -3.2813437499999996 -0.5911562499999999 0.31478125 -1.7455625 3.27903125 0.5908125 -1.38434375 -2.5455ZM5.776250000000001 10.87365625l1.1736875 1.3298750000000001 -2.17271875 1.9162812500000002 3.28759375 0.57396875 -0.30471875 1.747375 -3.29121875 -0.5744375 1.4136875 2.55571875 -1.55209375 0.85859375 -2.3061499999999997 -4.1688125c-0.20135 -0.36396875 -0.12268124999999999 -0.819 0.189190625 -1.09425L5.776250000000001 10.87365625Zm11.1126875 -1.3719999999999999 3.10846875 3.7555312499999998 -1.4060937500000001 1.16384375 -1.8558125 -2.24203125 -0.6018125 3.4466562499999998 -1.7980312500000002 -0.3143125 0.6003125 -3.4375937499999996 -2.489375 1.4593125000000002 -0.92296875 -1.57478125 3.8238125 -2.2419375 0.00378125 -0.0145625 0.01684375 0.0021875 0.35634375 -0.20778125000000003c0.38606250000000003 -0.22625 0.8792187499999999 -0.13924999999999998 1.16453125 0.20546874999999998Zm4.0056562499999995 -1.84696875 0.67984375 -1.63828125 4.3975625 1.82490625c0.3838125 0.15928125 0.6055937499999999 0.56375 0.5335 0.973l-0.07321875 0.40709375 -0.7509375 4.271625 -1.74684375 -0.30771875 0.50334375 -2.8594375 -2.9175 1.6124375 -0.857375 -1.55275 2.9230937499999996 -1.6137812500000002 -2.6914687500000003 -1.11709375ZM12.5173125 4.4263125l0.07559375 1.772125 -2.90490625 0.12415625 2.1909375 2.5037812500000003 -1.334875 1.1680312499999999 -2.1946250000000003 -2.5075625 -0.5113125000000001 2.86278125 -1.74603125 -0.3123125 0.83678125 -4.6782812499999995c0.07312500000000001 -0.408875 0.42021875 -0.71221875 0.8352187499999999 -0.7299374999999999l0.4110625 -0.018375 0.00921875 -0.0066875 4.3329375 -0.17771874999999998ZM18.45953125 0.6470187500000001 21.5539375 4.42625l-1.4122812500000002 1.1563750000000002 -1.83659375 -2.2434375 -0.61946875 3.4420937499999997 -1.7964375 -0.32328124999999996 0.6205 -3.44983125 -2.5075312500000004 1.46608125 -0.9209062499999999 -1.575971875L17.2929375 0.43721875c0.38753125 -0.2264584375 0.88221875 -0.137494375 1.1665937499999999 0.2098Z" stroke-width="0.3125"></path>
</svg>